<svg xmlns="http://www.w3.org/2000/svg" viewBox="0 0 64 64" fill="none">
  <!-- Background circle -->
  <circle cx="32" cy="32" r="32" fill="#1e3a5f"/>

  <!-- Eagle silhouette -->
  <g transform="translate(32, 32)">
    <!-- Eagle head -->
    <ellipse cx="0" cy="-8" rx="6" ry="7" fill="#d4a574"/>

    <!-- Eagle beak -->
    <path d="M 4,-8 L 8,-8 L 6,-10 Z" fill="#fbbf24"/>

    <!-- Eagle eye -->
    <circle cx="2" cy="-9" r="1" fill="#1e3a5f"/>

    <!-- Eagle body -->
    <ellipse cx="0" cy="2" rx="7" ry="10" fill="#d4a574"/>

    <!-- Left wing -->
    <path d="M -7,-2 Q -18,-5 -20,2 Q -18,8 -7,6 Z" fill="#d4a574"/>

    <!-- Right wing -->
    <path d="M 7,-2 Q 18,-5 20,2 Q 18,8 7,6 Z" fill="#d4a574"/>

    <!-- Tail feathers -->
    <path d="M -4,12 L 0,18 L 4,12 Z" fill="#d4a574"/>

    <!-- Wing details (darker shading) -->
    <path d="M -7,0 Q -15,0 -17,4 Q -15,7 -7,5 Z" fill="#b8935f" opacity="0.6"/>
    <path d="M 7,0 Q 15,0 17,4 Q 15,7 7,5 Z" fill="#b8935f" opacity="0.6"/>
  </g>

  <!-- House icon (small, at bottom) -->
  <g transform="translate(32, 48) scale(0.3)">
    <path d="M 0,-12 L -10,0 L -8,0 L -8,10 L 8,10 L 8,0 L 10,0 Z" fill="#fbbf24"/>
    <rect x="-3" y="3" width="6" height="7" fill="#1e3a5f"/>
  </g>
</svg>
